<svg xmlns="http://www.w3.org/2000/svg" viewBox="0 0 1200 1200" role="img" aria-labelledby="title description">
  <title id="title">Investiții industriale moderne</title>
  <description id="description">Ilustrație cu o fabrică automatizată, linie de producție și echipamente tehnologice.</description>
  <defs>
    <linearGradient id="background" x1="0" y1="0" x2="1" y2="1">
      <stop offset="0" stop-color="#052f24"/>
      <stop offset=".52" stop-color="#0b6b49"/>
      <stop offset="1" stop-color="#a7d46f"/>
    </linearGradient>
    <linearGradient id="floor" x1="0" y1="0" x2="0" y2="1">
      <stop offset="0" stop-color="#17352b"/>
      <stop offset="1" stop-color="#061f18"/>
    </linearGradient>
    <linearGradient id="metal" x1="0" y1="0" x2="1" y2="1">
      <stop offset="0" stop-color="#f8faf5"/>
      <stop offset=".45" stop-color="#b9c8c0"/>
      <stop offset="1" stop-color="#5b7469"/>
    </linearGradient>
    <linearGradient id="lime" x1="0" y1="0" x2="1" y2="1">
      <stop offset="0" stop-color="#dff1df"/>
      <stop offset="1" stop-color="#a7d46f"/>
    </linearGradient>
    <radialGradient id="glow">
      <stop offset="0" stop-color="#dff1df" stop-opacity=".7"/>
      <stop offset="1" stop-color="#dff1df" stop-opacity="0"/>
    </radialGradient>
    <pattern id="grid" width="80" height="80" patternUnits="userSpaceOnUse">
      <path d="M80 0H0V80" fill="none" stroke="#dff1df" stroke-opacity=".1" stroke-width="2"/>
    </pattern>
    <filter id="shadow" x="-30%" y="-30%" width="160%" height="160%">
      <feDropShadow dx="0" dy="22" stdDeviation="24" flood-color="#02150f" flood-opacity=".45"/>
    </filter>
  </defs>

  <rect width="1200" height="1200" fill="url(#background)"/>
  <circle cx="945" cy="210" r="330" fill="url(#glow)"/>
  <circle cx="170" cy="210" r="250" fill="#a7d46f" opacity=".1"/>
  <path d="M0 435C225 315 390 390 575 315S960 160 1200 280V0H0Z" fill="#dff1df" opacity=".08"/>
  <rect y="470" width="1200" height="730" fill="url(#floor)"/>
  <rect y="470" width="1200" height="730" fill="url(#grid)"/>

  <g opacity=".22" fill="none" stroke="#dff1df" stroke-width="18">
    <circle cx="870" cy="250" r="118"/>
    <circle cx="870" cy="250" r="58"/>
    <path d="M870 95v-48M870 453v-48M715 250h-48M1073 250h-48M760 140l-34-34M1014 394l-34-34M760 360l-34 34M1014 106l-34 34"/>
  </g>

  <g filter="url(#shadow)">
    <path d="M105 770h990v180H105z" fill="#0c2920"/>
    <path d="M135 745h930l-82 116H217z" fill="#23483a"/>
    <path d="M168 772h864" stroke="#a7d46f" stroke-width="12" stroke-linecap="round"/>
    <g fill="url(#metal)">
      <rect x="230" y="730" width="136" height="95" rx="18"/>
      <rect x="442" y="730" width="136" height="95" rx="18"/>
      <rect x="654" y="730" width="136" height="95" rx="18"/>
      <rect x="866" y="730" width="136" height="95" rx="18"/>
    </g>
    <g fill="#073d2c">
      <circle cx="270" cy="777" r="16"/><circle cx="326" cy="777" r="16"/>
      <circle cx="482" cy="777" r="16"/><circle cx="538" cy="777" r="16"/>
      <circle cx="694" cy="777" r="16"/><circle cx="750" cy="777" r="16"/>
      <circle cx="906" cy="777" r="16"/><circle cx="962" cy="777" r="16"/>
    </g>
  </g>

  <g filter="url(#shadow)">
    <rect x="442" y="415" width="318" height="306" rx="34" fill="url(#metal)"/>
    <rect x="476" y="452" width="250" height="136" rx="20" fill="#073d2c"/>
    <rect x="502" y="478" width="198" height="84" rx="12" fill="#0b6b49"/>
    <path d="M532 529h45l30-28 37 31 28-19" fill="none" stroke="#dff1df" stroke-width="12" stroke-linecap="round" stroke-linejoin="round"/>
    <rect x="505" y="618" width="192" height="60" rx="16" fill="#a7d46f"/>
    <circle cx="538" cy="648" r="12" fill="#073d2c"/>
    <path d="M574 648h90" stroke="#073d2c" stroke-width="11" stroke-linecap="round"/>
  </g>

  <g fill="none" stroke-linecap="round" stroke-linejoin="round" filter="url(#shadow)">
    <path d="M270 690V510l92-92 88 70" stroke="#dff1df" stroke-width="46"/>
    <path d="M270 690V510l92-92 88 70" stroke="#6f857b" stroke-width="27"/>
    <circle cx="270" cy="690" r="48" fill="#a7d46f" stroke="#dff1df" stroke-width="20"/>
    <circle cx="362" cy="418" r="42" fill="#a7d46f" stroke="#dff1df" stroke-width="18"/>
    <circle cx="450" cy="488" r="34" fill="#a7d46f" stroke="#dff1df" stroke-width="16"/>
    <path d="M930 690V502l-86-82-82 62" stroke="#dff1df" stroke-width="46"/>
    <path d="M930 690V502l-86-82-82 62" stroke="#6f857b" stroke-width="27"/>
    <circle cx="930" cy="690" r="48" fill="#a7d46f" stroke="#dff1df" stroke-width="20"/>
    <circle cx="844" cy="420" r="42" fill="#a7d46f" stroke="#dff1df" stroke-width="18"/>
    <circle cx="762" cy="482" r="34" fill="#a7d46f" stroke="#dff1df" stroke-width="16"/>
  </g>

  <g opacity=".85">
    <rect x="120" y="985" width="290" height="20" rx="10" fill="#a7d46f"/>
    <rect x="120" y="1025" width="180" height="13" rx="7" fill="#dff1df" opacity=".6"/>
    <circle cx="1040" cy="1010" r="62" fill="none" stroke="#a7d46f" stroke-width="18"/>
    <path d="M1040 972v76m-38-38h76" stroke="#dff1df" stroke-width="14" stroke-linecap="round"/>
  </g>
</svg>
